<svg class="icon" style="width: 1em;height: 1em;vertical-align: middle;fill: #3E9B4F;overflow: hidden;" viewBox="0 0 1024 1024" version="1.1" xmlns="http://www.w3.org/2000/svg" p-id="4446"><path d="M846.4384 18.0736a51.7632 51.7632 0 0 0-73.5232 0L20.7872 773.8368a52.3776 52.3776 0 0 0 0 73.8816 581.8368 581.8368 0 0 0 825.6512 0 589.312 589.312 0 0 0 0-829.6448z m-228.352 605.3376a282.2144 282.2144 0 0 1-343.6032 43.264l386.6624-388.5568a285.696 285.696 0 0 1-43.0592 345.2928z m154.8288 150.4256a478.3104 478.3104 0 0 1-640 34.9696l65.6384-65.8944a386.048 386.048 0 0 0 492.9536-45.6192 391.2704 391.2704 0 0 0 45.3632-495.36l70.7072-71.0656a484.6592 484.6592 0 0 1-34.6624 642.9696z m-171.4688-276.48a52.5824 52.5824 0 1 0-52.3264-52.5824 52.4288 52.4288 0 0 0 52.3264 52.6336z m-103.9872 156.7232a52.5824 52.5824 0 1 0-52.3264-52.5824 52.48 52.48 0 0 0 52.3264 52.6336z" fill="" p-id="4447"></path></svg>